<svg id="visual" xmlns="http://www.w3.org/2000/svg" viewBox="0 0 900 273"><path d="M0,63.57l21.5,7.18C43,77.94,86,92.31,128.8,98.94s85.5,5.53,128.4-2.21S343,74.62,385.8,71.31s85.5,4.42,128.4,5S600,70.2,642.8,73s85.5,14.93,128.4,22.67,85.8,11.05,107.3,12.71L900,110V0H0Z" style="fill:#dcd2f6"/><path d="M0,105.34l21.5,10.34C43,126,86,146.68,128.8,150.37s85.5-9.59,128.4-21.4,85.8-22.15,128.6-25.84,85.5-.74,128.4,0,85.8-.74,128.6,2.21,85.5,10.34,128.4,17.72,85.8,14.76,107.3,18.45L900,145.2V64l-21.5-2.22c-21.5-2.21-64.5-6.64-107.3-17S685.7,18.24,642.8,14.55,557,19.72,514.2,19,428.7,7.91,385.8,12.33,300,36,257.2,46.29s-85.5,11.81-128.4,3S43,21.19,21.5,11.6L0,2Z" style="fill:#e2d9f8"/><path d="M0,154.22l21.5,7c21.5,7,64.5,21.12,107.3,25.6s85.5-.64,128.4-9.6S343,155.5,385.8,151s85.5-.64,128.4,1.92,85.8,3.84,128.6,4.48,85.5.64,128.4,7,85.8,19.2,107.3,25.6l21.5,6.4v-70.4l-21.5-3.2c-21.5-3.2-64.5-9.6-107.3-16S685.7,94.06,642.8,91.5,557,90.22,514.2,89.58s-85.5-3.2-128.4,0S300,101.74,257.2,112s-85.5,21.76-128.4,18.56S43,109.42,21.5,100.46L0,91.5Z" style="fill:#e8e0fb"/><path d="M0,264.63l21.5,1.21c21.5,1.21,64.5,3.63,107.3,4.23s85.5-.6,128.4-2.42,85.8-4.23,128.6-4.84,85.5.61,128.4.61,85.8-1.21,128.6-4.24,85.5-7.87,128.4-7.26,85.8,6.65,107.3,9.68l21.5,3V187.15l-21.5-6.05c-21.5-6-64.5-18.16-107.3-24.21s-85.5-6-128.4-6.66S557,148.42,514.2,146s-85.5-6.06-128.4-1.82S300,160.52,257.2,169s-85.5,13.31-128.4,9.08S43,160.52,21.5,153.87L0,147.21Z" style="fill:#ede7fd"/><path d="M0,273H900V211l-21.5-5c-21.5-5-64.5-15-107.3-16s-85.5,7-128.4,12a1108.37,1108.37,0,0,1-128.6,7c-42.9,0-85.5-2-128.4-1s-85.8,5-128.6,8-85.5,5-128.4,4S43,215,21.5,213L0,211Z" style="fill:#ede7fd"/></svg>